<svg version="1.1" xmlns="http://www.w3.org/2000/svg" xmlns:xlink="http://www.w3.org/1999/xlink" width="91.1198" height="39.56877" viewBox="0,0,91.1198,39.56877"><g transform="translate(-195.19009,-162.9672)"><g data-paper-data="{&quot;isPaintingLayer&quot;:true}" fill-rule="nonzero" stroke="#000000" stroke-linejoin="miter" stroke-miterlimit="10" stroke-dasharray="" stroke-dashoffset="0" style="mix-blend-mode: normal"><path d="M205.91577,191.36141v-22.72282h68.16846v22.72282z" fill="#000000" stroke-width="2" stroke-linecap="butt"/><path d="M284.80989,190.33705c0,5.90885 -5.11104,10.69892 -11.41584,10.69892c-6.3048,0 -11.41585,-4.79007 -11.41585,-10.69891c0,-5.90885 5.11105,-10.69891 11.41585,-10.69891c6.3048,0 11.41584,4.79006 11.41584,10.69891z" fill="#ffffff" stroke-width="3" stroke-linecap="butt"/><path d="M219.52179,190.01702c0,5.90885 -5.11104,10.69892 -11.41584,10.69892c-6.3048,0 -11.41585,-4.79007 -11.41585,-10.69891c0,-5.90885 5.11105,-10.69891 11.41585,-10.69891c6.3048,0 11.41584,4.79006 11.41584,10.69891z" fill="#ffffff" stroke-width="3" stroke-linecap="butt"/><path d="M206.62638,167.67921l11.84147,-3.2004l55.04683,3.2004" fill="none" stroke-width="3" stroke-linecap="round"/><path d="M226.22589,189.72458l3.58351,-10.61271l21.22542,7.16702l-3.58351,10.61271z" fill="#ffffff" stroke-width="3" stroke-linecap="butt"/></g></g></svg>