<svg version="1.1" xmlns="http://www.w3.org/2000/svg" xmlns:xlink="http://www.w3.org/1999/xlink" width="33.40861" height="16.37041" viewBox="0,0,33.40861,16.37041"><g transform="translate(-225.87297,-172.01237)"><g data-paper-data="{&quot;isPaintingLayer&quot;:true}" fill-rule="nonzero" stroke="#000000" stroke-linejoin="miter" stroke-miterlimit="10" stroke-dasharray="" stroke-dashoffset="0" style="mix-blend-mode: normal"><path d="M228.15697,179.87632l23.30954,0.19754l3.95077,-3.75323" fill="none" stroke-width="2" stroke-linecap="round"/><path d="M235.56467,183.72832c0,1.69101 -1.34873,3.06185 -3.01246,3.06185c-1.66374,0 -3.01246,-1.37083 -3.01246,-3.06185c0,-1.69101 1.34873,-3.06185 3.01246,-3.06185c1.66374,0 3.01246,1.37083 3.01246,3.06185z" fill="none" stroke-width="2" stroke-linecap="butt"/><path d="M255.12097,184.02463c0,1.85466 -1.48139,3.35816 -3.30877,3.35816c-1.82738,0 -3.30877,-1.5035 -3.30877,-3.35816c0,-1.85466 1.48139,-3.35815 3.30877,-3.35815c1.82738,0 3.30877,1.50349 3.30877,3.35815z" fill="none" stroke-width="2" stroke-linecap="butt"/><path d="M253.83697,175.82678h4.44461" fill="none" stroke-width="2" stroke-linecap="round"/><path d="M253.44189,175.62925l-1.77785,-1.38277" fill="none" stroke-width="2" stroke-linecap="round"/><path d="M228.05821,179.77755l-1.08646,-1.5803l-0.09877,-3.25939" fill="none" stroke-width="2" stroke-linecap="round"/><text transform="translate(228.9087,178.30508) scale(0.11488,0.14466)" font-size="40" xml:space="preserve" fill="#000000" fill-rule="nonzero" stroke="#000000" stroke-width="1" stroke-linecap="butt" stroke-linejoin="miter" stroke-miterlimit="10" stroke-dasharray="" stroke-dashoffset="0" font-family="Sans Serif" font-weight="normal" text-anchor="start" style="mix-blend-mode: normal"><tspan x="0" dy="0">WheelsGo</tspan></text></g></g></svg>